<svg width="154.5" height="42" viewBox="0 0 103 28" fill="#678" xmlns="http://www.w3.org/2000/svg">
<path d="M16 0C17.7385 7 26.3226 10.2308 26.3226 10.2308C23.2258 11.3077 20.129 9.69231 20.129 9.69231C21.1613 16.1538 32 18.3077 32 18.3077C32 18.3077 21.1613 23.6923 18.0645 28L17.7385 24.7692L23.2258 16.1538L17.3582 21L16 7.53846L14.6418 21L8.77419 16.1538L14.2615 24.7692L13.9355 28C10.8387 23.6923 0 18.3077 0 18.3077C0 18.3077 10.8387 16.1538 11.871 9.69231C11.871 9.69231 8.25806 11.3077 5.67742 10.2308C5.67742 10.2308 14.4516 7 16 0Z"/>
<path d="M37.21 21.934V6.688C38.0753 6.61467 38.86 6.556 39.564 6.512C40.2827 6.468 40.9427 6.43867 41.544 6.424C42.16 6.39467 42.7247 6.38 43.238 6.38C44.6753 6.38 45.8267 6.512 46.692 6.776C47.572 7.02533 48.21 7.42867 48.606 7.986C49.002 8.52867 49.2 9.24 49.2 10.12C49.2 10.9267 49.0167 11.6233 48.65 12.21C48.2833 12.782 47.726 13.2293 46.978 13.552V13.574C47.9313 13.838 48.672 14.3147 49.2 15.004C49.7427 15.6933 50.014 16.5293 50.014 17.512C50.014 18.3627 49.8967 19.0887 49.662 19.69C49.4273 20.2767 49.046 20.7607 48.518 21.142C48.0047 21.5087 47.3153 21.78 46.45 21.956C45.5993 22.132 44.5507 22.22 43.304 22.22C42.8347 22.22 42.424 22.2127 42.072 22.198C41.7347 22.198 41.4193 22.1907 41.126 22.176C40.8327 22.176 40.51 22.1613 40.158 22.132C39.806 22.1173 39.3953 22.088 38.926 22.044C38.4567 22.0147 37.8847 21.978 37.21 21.934ZM40.95 12.936H43.942C44.3087 12.936 44.624 12.8627 44.888 12.716C45.152 12.5693 45.35 12.364 45.482 12.1C45.6287 11.836 45.702 11.528 45.702 11.176C45.702 10.736 45.614 10.384 45.438 10.12C45.2767 9.856 45.0127 9.66533 44.646 9.548C44.2793 9.416 43.7733 9.35 43.128 9.35C42.952 9.35 42.798 9.35 42.666 9.35C42.534 9.35 42.4093 9.35733 42.292 9.372C42.1893 9.372 42.072 9.37933 41.94 9.394C41.8227 9.394 41.6833 9.40133 41.522 9.416C41.3607 9.43067 41.17 9.44533 40.95 9.46V12.936ZM40.95 19.162C41.1993 19.1767 41.4267 19.1913 41.632 19.206C41.8373 19.2207 42.0207 19.2353 42.182 19.25C42.358 19.25 42.5193 19.25 42.666 19.25C42.8273 19.25 42.9813 19.25 43.128 19.25C43.92 19.25 44.536 19.1913 44.976 19.074C45.4307 18.942 45.746 18.7367 45.922 18.458C46.098 18.1793 46.186 17.8127 46.186 17.358C46.186 16.742 46.0027 16.2873 45.636 15.994C45.284 15.7007 44.712 15.554 43.92 15.554H40.95V19.162Z"/>
<path d="M50.964 18.722C50.964 18.0033 51.096 17.4093 51.36 16.94C51.6386 16.4707 52.0566 16.0967 52.614 15.818C53.186 15.5393 53.9046 15.3267 54.77 15.18C55.6353 15.0187 56.662 14.894 57.85 14.806V14.08C57.85 13.64 57.6666 13.3173 57.3 13.112C56.9333 12.9067 56.4053 12.804 55.716 12.804C55.408 12.804 55.056 12.8187 54.66 12.848C54.264 12.8773 53.8533 12.9287 53.428 13.002C53.0173 13.0753 52.592 13.178 52.152 13.31L51.58 10.494C52.24 10.2887 52.966 10.1273 53.758 10.01C54.55 9.878 55.2833 9.812 55.958 9.812C57.2486 9.812 58.29 9.97333 59.082 10.296C59.8886 10.604 60.4753 11.0733 60.842 11.704C61.2233 12.3347 61.414 13.112 61.414 14.036V18.216C61.414 18.5827 61.4653 18.8247 61.568 18.942C61.6853 19.0593 61.8173 19.118 61.964 19.118C62.0373 19.118 62.118 19.118 62.206 19.118C62.3086 19.1033 62.3966 19.0813 62.47 19.052L62.756 21.626C62.4626 21.802 62.1326 21.9413 61.766 22.044C61.414 22.1613 61.018 22.22 60.578 22.22C59.962 22.22 59.456 22.11 59.06 21.89C58.6786 21.6553 58.3926 21.3033 58.202 20.834C57.8206 21.1127 57.432 21.362 57.036 21.582C56.6546 21.7873 56.2366 21.9413 55.782 22.044C55.342 22.1613 54.8433 22.22 54.286 22.22C53.7873 22.22 53.3326 22.1393 52.922 21.978C52.526 21.8167 52.174 21.5893 51.866 21.296C51.5726 20.988 51.3453 20.6213 51.184 20.196C51.0373 19.7707 50.964 19.2793 50.964 18.722ZM54.594 18.502C54.594 18.9713 54.6966 19.316 54.902 19.536C55.1073 19.756 55.3786 19.866 55.716 19.866C55.9506 19.866 56.1926 19.8293 56.442 19.756C56.706 19.6827 56.9626 19.58 57.212 19.448C57.4613 19.3013 57.674 19.14 57.85 18.964V16.72C57.3073 16.764 56.8306 16.8227 56.42 16.896C56.024 16.9547 55.6866 17.05 55.408 17.182C55.1293 17.314 54.924 17.49 54.792 17.71C54.66 17.9153 54.594 18.1793 54.594 18.502Z"/>
<path d="M63.317 21.538L63.713 18.942C63.977 19.03 64.2776 19.118 64.615 19.206C64.967 19.2793 65.3263 19.3453 65.693 19.404C66.0596 19.4627 66.419 19.5067 66.771 19.536C67.1376 19.5653 67.475 19.58 67.783 19.58C68.355 19.58 68.773 19.4993 69.037 19.338C69.3156 19.162 69.455 18.92 69.455 18.612C69.455 18.4067 69.3816 18.2453 69.235 18.128C69.103 17.996 68.905 17.8787 68.641 17.776C68.377 17.6733 68.0616 17.5853 67.695 17.512C67.3283 17.424 66.925 17.3213 66.485 17.204C65.9863 17.1013 65.5536 16.9547 65.187 16.764C64.8203 16.5587 64.505 16.3167 64.241 16.038C63.9916 15.7447 63.801 15.4147 63.669 15.048C63.5516 14.6667 63.493 14.2413 63.493 13.772C63.493 12.452 63.911 11.462 64.747 10.802C65.583 10.142 66.8223 9.812 68.465 9.812C68.9636 9.812 69.4403 9.84133 69.895 9.9C70.3496 9.944 70.7823 10.01 71.193 10.098C71.6036 10.186 71.9776 10.296 72.315 10.428L71.875 13.068C71.5523 12.9507 71.215 12.8553 70.863 12.782C70.5256 12.7087 70.159 12.65 69.763 12.606C69.3816 12.562 68.949 12.54 68.465 12.54C67.937 12.54 67.541 12.6133 67.277 12.76C67.013 12.9067 66.881 13.134 66.881 13.442C66.881 13.6327 66.9323 13.7867 67.035 13.904C67.1376 14.0067 67.2916 14.102 67.497 14.19C67.7023 14.2633 67.9516 14.3367 68.245 14.41C68.553 14.4687 68.905 14.542 69.301 14.63C69.829 14.7327 70.313 14.872 70.753 15.048C71.2076 15.224 71.5963 15.4513 71.919 15.73C72.2416 15.994 72.491 16.3313 72.667 16.742C72.8576 17.1527 72.953 17.6587 72.953 18.26C72.953 18.8467 72.8576 19.36 72.667 19.8C72.491 20.24 72.2416 20.614 71.919 20.922C71.5963 21.23 71.215 21.4793 70.775 21.67C70.3496 21.8607 69.873 22 69.345 22.088C68.817 22.176 68.2743 22.22 67.717 22.22C67.189 22.22 66.6756 22.1907 66.177 22.132C65.6783 22.088 65.1943 22.022 64.725 21.934C64.2556 21.8313 63.7863 21.6993 63.317 21.538Z"/>
<path d="M84.3184 22.198C84.0544 22.198 83.7977 22.1687 83.5484 22.11C83.299 22.066 83.0277 21.9707 82.7344 21.824C82.4557 21.6773 82.133 21.4647 81.7664 21.186C81.4144 20.8927 81.0037 20.5187 80.5344 20.064L77.7624 17.468V22H74.3304V5.72H77.7624V12.98L81.2604 16.302C81.935 16.9473 82.485 17.4387 82.9104 17.776C83.3504 18.1133 83.7097 18.3407 83.9884 18.458C84.267 18.5607 84.5384 18.612 84.8024 18.612C84.8464 18.612 84.8977 18.612 84.9564 18.612C85.015 18.5973 85.081 18.59 85.1544 18.59L85.1764 22.132C85.059 22.1467 84.927 22.1613 84.7804 22.176C84.6484 22.1907 84.4944 22.198 84.3184 22.198ZM80.2924 16.808L77.3884 15.422C77.9164 14.9527 78.393 14.4907 78.8184 14.036C79.2584 13.5813 79.6397 13.134 79.9624 12.694C80.2997 12.254 80.5784 11.7993 80.7984 11.33C81.033 10.8607 81.2164 10.362 81.3484 9.834L85.0004 10.032C84.839 10.6627 84.5897 11.286 84.2524 11.902C83.915 12.518 83.519 13.1193 83.0644 13.706C82.6244 14.2927 82.1624 14.85 81.6784 15.378C81.1944 15.8913 80.7324 16.368 80.2924 16.808Z"/>
<path d="M88.316 8.756C87.5827 8.756 87.04 8.60933 86.688 8.316C86.3507 8.02267 86.182 7.568 86.182 6.952C86.182 6.336 86.3507 5.88133 86.688 5.588C87.04 5.29467 87.5827 5.148 88.316 5.148C89.0493 5.148 89.5847 5.29467 89.922 5.588C90.2593 5.88133 90.428 6.336 90.428 6.952C90.428 7.568 90.2593 8.02267 89.922 8.316C89.5993 8.60933 89.064 8.756 88.316 8.756ZM86.512 22V10.032H90.098V22H86.512Z"/>
<path d="M92.1194 22V10.032H95.3754V11.066C95.8594 10.7727 96.3141 10.538 96.7394 10.362C97.1794 10.1713 97.6048 10.032 98.0154 9.944C98.4408 9.856 98.8881 9.812 99.3574 9.812C100.135 9.812 100.78 9.95867 101.293 10.252C101.821 10.5307 102.21 10.9267 102.459 11.44C102.723 11.9387 102.855 12.54 102.855 13.244V22H99.2474V14.432C99.2474 13.8747 99.1228 13.4713 98.8734 13.222C98.6241 12.958 98.2721 12.826 97.8174 12.826C97.5828 12.826 97.3481 12.8553 97.1134 12.914C96.8934 12.958 96.6661 13.024 96.4314 13.112C96.2114 13.2 95.9768 13.3027 95.7274 13.42V22H92.1194Z"/>
</svg>
